<mxfile host="app.diagrams.net" modified="2024-06-15T22:09:28.299Z" agent="Mozilla/5.0 (Windows NT 10.0; Win64; x64) AppleWebKit/537.36 (KHTML, like Gecko) Chrome/125.0.0.0 Safari/537.36" etag="dKASajOGP3NHQQPiQcC3" version="24.5.4" type="google">
  <diagram name="Page-1" id="zRaPP-gX96_hrmymJ32n">
    <mxGraphModel grid="1" page="1" gridSize="10" guides="1" tooltips="1" connect="1" arrows="1" fold="1" pageScale="1" pageWidth="850" pageHeight="1100" math="0" shadow="0">
      <root>
        <mxCell id="0" />
        <mxCell id="1" parent="0" />
        <mxCell id="qfWjjOUmIkGMyD_FKV4x-2" value="&lt;b style=&quot;&quot;&gt;&lt;i&gt;&lt;font style=&quot;font-size: 20px;&quot;&gt;Patron Adapter&lt;/font&gt;&lt;/i&gt;&lt;/b&gt;" style="text;html=1;align=center;verticalAlign=middle;resizable=0;points=[];autosize=1;strokeColor=none;fillColor=none;" vertex="1" parent="1">
          <mxGeometry x="160" y="-3410" width="170" height="40" as="geometry" />
        </mxCell>
        <mxCell id="qfWjjOUmIkGMyD_FKV4x-191" style="edgeStyle=orthogonalEdgeStyle;rounded=0;orthogonalLoop=1;jettySize=auto;html=1;endSize=12;startSize=12;" edge="1" parent="1" source="qfWjjOUmIkGMyD_FKV4x-144" target="qfWjjOUmIkGMyD_FKV4x-152">
          <mxGeometry relative="1" as="geometry" />
        </mxCell>
        <mxCell id="qfWjjOUmIkGMyD_FKV4x-144" value="&lt;&lt;widget&gt;&gt;&#xa;ControlPanel" style="swimlane;fontStyle=0;align=center;verticalAlign=top;childLayout=stackLayout;horizontal=1;startSize=40;horizontalStack=0;resizeParent=1;resizeLast=0;collapsible=1;marginBottom=0;rounded=0;shadow=0;strokeWidth=1;fillColor=#fff2cc;strokeColor=#d6b656;" vertex="1" parent="1">
          <mxGeometry x="320" y="-3320" width="400" height="200" as="geometry">
            <mxRectangle x="110" y="-20" width="160" height="26" as="alternateBounds" />
          </mxGeometry>
        </mxCell>
        <mxCell id="qfWjjOUmIkGMyD_FKV4x-145" value="Â - poolingPeriod : Integer" style="text;align=left;verticalAlign=top;spacingLeft=4;spacingRight=4;overflow=hidden;rotatable=0;points=[[0,0.5],[1,0.5]];portConstraint=eastwest;rounded=0;shadow=0;html=0;" vertex="1" parent="qfWjjOUmIkGMyD_FKV4x-144">
          <mxGeometry y="40" width="400" height="24" as="geometry" />
        </mxCell>
        <mxCell id="qfWjjOUmIkGMyD_FKV4x-146" value="" style="line;html=1;strokeWidth=1;align=left;verticalAlign=middle;spacingTop=-1;spacingLeft=3;spacingRight=3;rotatable=0;labelPosition=right;points=[];portConstraint=eastwest;" vertex="1" parent="qfWjjOUmIkGMyD_FKV4x-144">
          <mxGeometry y="64" width="400" height="8" as="geometry" />
        </mxCell>
        <mxCell id="qfWjjOUmIkGMyD_FKV4x-147" value="+ &lt;&lt;create&gt;&gt; ControlPanel( module: SensingModule , period: Integer )" style="text;align=left;verticalAlign=top;spacingLeft=4;spacingRight=4;overflow=hidden;rotatable=0;points=[[0,0.5],[1,0.5]];portConstraint=eastwest;rounded=0;shadow=0;html=0;" vertex="1" parent="qfWjjOUmIkGMyD_FKV4x-144">
          <mxGeometry y="72" width="400" height="24" as="geometry" />
        </mxCell>
        <mxCell id="qfWjjOUmIkGMyD_FKV4x-148" value="+ updateView()" style="text;align=left;verticalAlign=top;spacingLeft=4;spacingRight=4;overflow=hidden;rotatable=0;points=[[0,0.5],[1,0.5]];portConstraint=eastwest;rounded=0;shadow=0;html=0;" vertex="1" parent="qfWjjOUmIkGMyD_FKV4x-144">
          <mxGeometry y="96" width="400" height="24" as="geometry" />
        </mxCell>
        <mxCell id="qfWjjOUmIkGMyD_FKV4x-149" value="- createCallback( period: integer )" style="text;align=left;verticalAlign=top;spacingLeft=4;spacingRight=4;overflow=hidden;rotatable=0;points=[[0,0.5],[1,0.5]];portConstraint=eastwest;rounded=0;shadow=0;html=0;" vertex="1" parent="qfWjjOUmIkGMyD_FKV4x-144">
          <mxGeometry y="120" width="400" height="24" as="geometry" />
        </mxCell>
        <mxCell id="qfWjjOUmIkGMyD_FKV4x-150" value="- displayTemp( temp: Real )" style="text;align=left;verticalAlign=top;spacingLeft=4;spacingRight=4;overflow=hidden;rotatable=0;points=[[0,0.5],[1,0.5]];portConstraint=eastwest;rounded=0;shadow=0;html=0;" vertex="1" parent="qfWjjOUmIkGMyD_FKV4x-144">
          <mxGeometry y="144" width="400" height="24" as="geometry" />
        </mxCell>
        <mxCell id="qfWjjOUmIkGMyD_FKV4x-151" value="- displayHumid( temp: Real )" style="text;align=left;verticalAlign=top;spacingLeft=4;spacingRight=4;overflow=hidden;rotatable=0;points=[[0,0.5],[1,0.5]];portConstraint=eastwest;rounded=0;shadow=0;html=0;" vertex="1" parent="qfWjjOUmIkGMyD_FKV4x-144">
          <mxGeometry y="168" width="400" height="24" as="geometry" />
        </mxCell>
        <mxCell id="qfWjjOUmIkGMyD_FKV4x-152" value="&lt;&lt;abstract&gt;&gt;&#xa;SensingModule" style="swimlane;fontStyle=0;align=center;verticalAlign=top;childLayout=stackLayout;horizontal=1;startSize=40;horizontalStack=0;resizeParent=1;resizeLast=0;collapsible=1;marginBottom=0;rounded=0;shadow=0;strokeWidth=1;fillColor=#fff2cc;strokeColor=#d6b656;" vertex="1" parent="1">
          <mxGeometry x="400" y="-3040" width="240" height="160" as="geometry">
            <mxRectangle x="110" y="-20" width="160" height="26" as="alternateBounds" />
          </mxGeometry>
        </mxCell>
        <mxCell id="qfWjjOUmIkGMyD_FKV4x-153" value="" style="line;html=1;strokeWidth=1;align=left;verticalAlign=middle;spacingTop=-1;spacingLeft=3;spacingRight=3;rotatable=0;labelPosition=right;points=[];portConstraint=eastwest;" vertex="1" parent="qfWjjOUmIkGMyD_FKV4x-152">
          <mxGeometry y="40" width="240" height="8" as="geometry" />
        </mxCell>
        <mxCell id="qfWjjOUmIkGMyD_FKV4x-154" value="+ &lt;&lt;abstract&gt;&gt; acquireTemp(): Real" style="text;align=left;verticalAlign=top;spacingLeft=4;spacingRight=4;overflow=hidden;rotatable=0;points=[[0,0.5],[1,0.5]];portConstraint=eastwest;rounded=0;shadow=0;html=0;" vertex="1" parent="qfWjjOUmIkGMyD_FKV4x-152">
          <mxGeometry y="48" width="240" height="24" as="geometry" />
        </mxCell>
        <mxCell id="qfWjjOUmIkGMyD_FKV4x-155" value="+ &lt;&lt;abstract&gt;&gt; acquireHumid(): Real" style="text;align=left;verticalAlign=top;spacingLeft=4;spacingRight=4;overflow=hidden;rotatable=0;points=[[0,0.5],[1,0.5]];portConstraint=eastwest;rounded=0;shadow=0;html=0;" vertex="1" parent="qfWjjOUmIkGMyD_FKV4x-152">
          <mxGeometry y="72" width="240" height="24" as="geometry" />
        </mxCell>
        <mxCell id="qfWjjOUmIkGMyD_FKV4x-156" value="+ reset()" style="text;align=left;verticalAlign=top;spacingLeft=4;spacingRight=4;overflow=hidden;rotatable=0;points=[[0,0.5],[1,0.5]];portConstraint=eastwest;rounded=0;shadow=0;html=0;" vertex="1" parent="qfWjjOUmIkGMyD_FKV4x-152">
          <mxGeometry y="96" width="240" height="24" as="geometry" />
        </mxCell>
        <mxCell id="qfWjjOUmIkGMyD_FKV4x-157" value="+ autocalibrate()" style="text;align=left;verticalAlign=top;spacingLeft=4;spacingRight=4;overflow=hidden;rotatable=0;points=[[0,0.5],[1,0.5]];portConstraint=eastwest;rounded=0;shadow=0;html=0;" vertex="1" parent="qfWjjOUmIkGMyD_FKV4x-152">
          <mxGeometry y="120" width="240" height="24" as="geometry" />
        </mxCell>
        <mxCell id="qfWjjOUmIkGMyD_FKV4x-193" style="edgeStyle=orthogonalEdgeStyle;rounded=0;orthogonalLoop=1;jettySize=auto;html=1;endSize=12;startSize=12;endArrow=block;endFill=0;" edge="1" parent="1" source="qfWjjOUmIkGMyD_FKV4x-159" target="qfWjjOUmIkGMyD_FKV4x-152">
          <mxGeometry relative="1" as="geometry" />
        </mxCell>
        <mxCell id="qfWjjOUmIkGMyD_FKV4x-159" value="HighResolution" style="swimlane;fontStyle=0;align=center;verticalAlign=top;childLayout=stackLayout;horizontal=1;startSize=30;horizontalStack=0;resizeParent=1;resizeLast=0;collapsible=1;marginBottom=0;rounded=0;shadow=0;strokeWidth=1;fillColor=#fff2cc;strokeColor=#d6b656;" vertex="1" parent="1">
          <mxGeometry x="240" y="-2800" width="160" height="100" as="geometry">
            <mxRectangle x="110" y="-20" width="160" height="26" as="alternateBounds" />
          </mxGeometry>
        </mxCell>
        <mxCell id="qfWjjOUmIkGMyD_FKV4x-160" value="" style="line;html=1;strokeWidth=1;align=left;verticalAlign=middle;spacingTop=-1;spacingLeft=3;spacingRight=3;rotatable=0;labelPosition=right;points=[];portConstraint=eastwest;" vertex="1" parent="qfWjjOUmIkGMyD_FKV4x-159">
          <mxGeometry y="30" width="160" height="8" as="geometry" />
        </mxCell>
        <mxCell id="qfWjjOUmIkGMyD_FKV4x-161" value="+ acquireTemp(): Real" style="text;align=left;verticalAlign=top;spacingLeft=4;spacingRight=4;overflow=hidden;rotatable=0;points=[[0,0.5],[1,0.5]];portConstraint=eastwest;rounded=0;shadow=0;html=0;" vertex="1" parent="qfWjjOUmIkGMyD_FKV4x-159">
          <mxGeometry y="38" width="160" height="24" as="geometry" />
        </mxCell>
        <mxCell id="qfWjjOUmIkGMyD_FKV4x-162" value="+ acquireHumid(): Real" style="text;align=left;verticalAlign=top;spacingLeft=4;spacingRight=4;overflow=hidden;rotatable=0;points=[[0,0.5],[1,0.5]];portConstraint=eastwest;rounded=0;shadow=0;html=0;" vertex="1" parent="qfWjjOUmIkGMyD_FKV4x-159">
          <mxGeometry y="62" width="160" height="24" as="geometry" />
        </mxCell>
        <mxCell id="qfWjjOUmIkGMyD_FKV4x-194" style="edgeStyle=orthogonalEdgeStyle;rounded=0;orthogonalLoop=1;jettySize=auto;html=1;endSize=12;startSize=12;endArrow=block;endFill=0;" edge="1" parent="1" source="qfWjjOUmIkGMyD_FKV4x-164" target="qfWjjOUmIkGMyD_FKV4x-152">
          <mxGeometry relative="1" as="geometry" />
        </mxCell>
        <mxCell id="qfWjjOUmIkGMyD_FKV4x-164" value="MediumResolution" style="swimlane;fontStyle=0;align=center;verticalAlign=top;childLayout=stackLayout;horizontal=1;startSize=30;horizontalStack=0;resizeParent=1;resizeLast=0;collapsible=1;marginBottom=0;rounded=0;shadow=0;strokeWidth=1;fillColor=#fff2cc;strokeColor=#d6b656;" vertex="1" parent="1">
          <mxGeometry x="440" y="-2800" width="160" height="100" as="geometry">
            <mxRectangle x="110" y="-20" width="160" height="26" as="alternateBounds" />
          </mxGeometry>
        </mxCell>
        <mxCell id="qfWjjOUmIkGMyD_FKV4x-165" value="" style="line;html=1;strokeWidth=1;align=left;verticalAlign=middle;spacingTop=-1;spacingLeft=3;spacingRight=3;rotatable=0;labelPosition=right;points=[];portConstraint=eastwest;" vertex="1" parent="qfWjjOUmIkGMyD_FKV4x-164">
          <mxGeometry y="30" width="160" height="8" as="geometry" />
        </mxCell>
        <mxCell id="qfWjjOUmIkGMyD_FKV4x-166" value="+ acquireTemp(): Real" style="text;align=left;verticalAlign=top;spacingLeft=4;spacingRight=4;overflow=hidden;rotatable=0;points=[[0,0.5],[1,0.5]];portConstraint=eastwest;rounded=0;shadow=0;html=0;" vertex="1" parent="qfWjjOUmIkGMyD_FKV4x-164">
          <mxGeometry y="38" width="160" height="24" as="geometry" />
        </mxCell>
        <mxCell id="qfWjjOUmIkGMyD_FKV4x-167" value="+ acquireHumid(): Real" style="text;align=left;verticalAlign=top;spacingLeft=4;spacingRight=4;overflow=hidden;rotatable=0;points=[[0,0.5],[1,0.5]];portConstraint=eastwest;rounded=0;shadow=0;html=0;" vertex="1" parent="qfWjjOUmIkGMyD_FKV4x-164">
          <mxGeometry y="62" width="160" height="26" as="geometry" />
        </mxCell>
        <mxCell id="qfWjjOUmIkGMyD_FKV4x-168" value="module" style="text;html=1;align=center;verticalAlign=middle;whiteSpace=wrap;rounded=0;fontSize=14;" vertex="1" parent="1">
          <mxGeometry x="460" y="-3090" width="60" height="15" as="geometry" />
        </mxCell>
        <mxCell id="qfWjjOUmIkGMyD_FKV4x-169" value="1" style="text;html=1;align=center;verticalAlign=middle;whiteSpace=wrap;rounded=0;fontSize=16;" vertex="1" parent="1">
          <mxGeometry x="520" y="-3090" width="20" height="15" as="geometry" />
        </mxCell>
        <mxCell id="qfWjjOUmIkGMyD_FKV4x-195" style="edgeStyle=orthogonalEdgeStyle;rounded=0;orthogonalLoop=1;jettySize=auto;html=1;endSize=12;startSize=12;" edge="1" parent="1" source="qfWjjOUmIkGMyD_FKV4x-170" target="qfWjjOUmIkGMyD_FKV4x-183">
          <mxGeometry relative="1" as="geometry" />
        </mxCell>
        <mxCell id="qfWjjOUmIkGMyD_FKV4x-170" value="CombinedMatrinSensor" style="swimlane;fontStyle=0;align=center;verticalAlign=top;childLayout=stackLayout;horizontal=1;startSize=30;horizontalStack=0;resizeParent=1;resizeLast=0;collapsible=1;marginBottom=0;rounded=0;shadow=0;strokeWidth=1;fillColor=#fff2cc;strokeColor=#d6b656;" vertex="1" parent="1">
          <mxGeometry x="600" y="-2600" width="240" height="140" as="geometry">
            <mxRectangle x="110" y="-20" width="160" height="26" as="alternateBounds" />
          </mxGeometry>
        </mxCell>
        <mxCell id="qfWjjOUmIkGMyD_FKV4x-171" value="" style="line;html=1;strokeWidth=1;align=left;verticalAlign=middle;spacingTop=-1;spacingLeft=3;spacingRight=3;rotatable=0;labelPosition=right;points=[];portConstraint=eastwest;" vertex="1" parent="qfWjjOUmIkGMyD_FKV4x-170">
          <mxGeometry y="30" width="240" height="8" as="geometry" />
        </mxCell>
        <mxCell id="qfWjjOUmIkGMyD_FKV4x-172" value="+ acquireSensor( mode: Integer ): Real" style="text;align=left;verticalAlign=top;spacingLeft=4;spacingRight=4;overflow=hidden;rotatable=0;points=[[0,0.5],[1,0.5]];portConstraint=eastwest;rounded=0;shadow=0;html=0;" vertex="1" parent="qfWjjOUmIkGMyD_FKV4x-170">
          <mxGeometry y="38" width="240" height="24" as="geometry" />
        </mxCell>
        <mxCell id="qfWjjOUmIkGMyD_FKV4x-173" value="+ acquireAll(): Map" style="text;align=left;verticalAlign=top;spacingLeft=4;spacingRight=4;overflow=hidden;rotatable=0;points=[[0,0.5],[1,0.5]];portConstraint=eastwest;rounded=0;shadow=0;html=0;" vertex="1" parent="qfWjjOUmIkGMyD_FKV4x-170">
          <mxGeometry y="62" width="240" height="24" as="geometry" />
        </mxCell>
        <mxCell id="qfWjjOUmIkGMyD_FKV4x-174" value="+ reset()" style="text;align=left;verticalAlign=top;spacingLeft=4;spacingRight=4;overflow=hidden;rotatable=0;points=[[0,0.5],[1,0.5]];portConstraint=eastwest;rounded=0;shadow=0;html=0;" vertex="1" parent="qfWjjOUmIkGMyD_FKV4x-170">
          <mxGeometry y="86" width="240" height="24" as="geometry" />
        </mxCell>
        <mxCell id="qfWjjOUmIkGMyD_FKV4x-175" value="+ calibrate( timeout: Integer )" style="text;align=left;verticalAlign=top;spacingLeft=4;spacingRight=4;overflow=hidden;rotatable=0;points=[[0,0.5],[1,0.5]];portConstraint=eastwest;rounded=0;shadow=0;html=0;" vertex="1" parent="qfWjjOUmIkGMyD_FKV4x-170">
          <mxGeometry y="110" width="240" height="24" as="geometry" />
        </mxCell>
        <mxCell id="qfWjjOUmIkGMyD_FKV4x-182" value="&lt;span style=&quot;font-size: 20px;&quot;&gt;&lt;b&gt;&lt;i&gt;ejercicio_18_SistemaDeMonitoreo&lt;/i&gt;&lt;/b&gt;&lt;/span&gt;" style="text;html=1;align=center;verticalAlign=middle;resizable=0;points=[];autosize=1;strokeColor=none;fillColor=none;" vertex="1" parent="1">
          <mxGeometry x="890" y="-2400" width="350" height="40" as="geometry" />
        </mxCell>
        <mxCell id="qfWjjOUmIkGMyD_FKV4x-192" style="edgeStyle=orthogonalEdgeStyle;rounded=0;orthogonalLoop=1;jettySize=auto;html=1;endSize=12;startSize=12;endArrow=block;endFill=0;" edge="1" parent="1" source="qfWjjOUmIkGMyD_FKV4x-183" target="qfWjjOUmIkGMyD_FKV4x-152">
          <mxGeometry relative="1" as="geometry" />
        </mxCell>
        <mxCell id="qfWjjOUmIkGMyD_FKV4x-183" value="LowResolution" style="swimlane;fontStyle=0;align=center;verticalAlign=top;childLayout=stackLayout;horizontal=1;startSize=30;horizontalStack=0;resizeParent=1;resizeLast=0;collapsible=1;marginBottom=0;rounded=0;shadow=0;strokeWidth=1;fillColor=#fff2cc;strokeColor=#d6b656;" vertex="1" parent="1">
          <mxGeometry x="640" y="-2800" width="160" height="140" as="geometry">
            <mxRectangle x="110" y="-20" width="160" height="26" as="alternateBounds" />
          </mxGeometry>
        </mxCell>
        <mxCell id="qfWjjOUmIkGMyD_FKV4x-184" value="" style="line;html=1;strokeWidth=1;align=left;verticalAlign=middle;spacingTop=-1;spacingLeft=3;spacingRight=3;rotatable=0;labelPosition=right;points=[];portConstraint=eastwest;" vertex="1" parent="qfWjjOUmIkGMyD_FKV4x-183">
          <mxGeometry y="30" width="160" height="8" as="geometry" />
        </mxCell>
        <mxCell id="qfWjjOUmIkGMyD_FKV4x-187" value="+ acquireTemp(): Real" style="text;align=left;verticalAlign=top;spacingLeft=4;spacingRight=4;overflow=hidden;rotatable=0;points=[[0,0.5],[1,0.5]];portConstraint=eastwest;rounded=0;shadow=0;html=0;" vertex="1" parent="qfWjjOUmIkGMyD_FKV4x-183">
          <mxGeometry y="38" width="160" height="24" as="geometry" />
        </mxCell>
        <mxCell id="qfWjjOUmIkGMyD_FKV4x-190" value="+ autocalibrate()" style="text;align=left;verticalAlign=top;spacingLeft=4;spacingRight=4;overflow=hidden;rotatable=0;points=[[0,0.5],[1,0.5]];portConstraint=eastwest;rounded=0;shadow=0;html=0;" vertex="1" parent="qfWjjOUmIkGMyD_FKV4x-183">
          <mxGeometry y="62" width="160" height="24" as="geometry" />
        </mxCell>
        <mxCell id="qfWjjOUmIkGMyD_FKV4x-189" value="+ reset()" style="text;align=left;verticalAlign=top;spacingLeft=4;spacingRight=4;overflow=hidden;rotatable=0;points=[[0,0.5],[1,0.5]];portConstraint=eastwest;rounded=0;shadow=0;html=0;" vertex="1" parent="qfWjjOUmIkGMyD_FKV4x-183">
          <mxGeometry y="86" width="160" height="24" as="geometry" />
        </mxCell>
        <mxCell id="qfWjjOUmIkGMyD_FKV4x-188" value="+ acquireHumid(): Real" style="text;align=left;verticalAlign=top;spacingLeft=4;spacingRight=4;overflow=hidden;rotatable=0;points=[[0,0.5],[1,0.5]];portConstraint=eastwest;rounded=0;shadow=0;html=0;" vertex="1" parent="qfWjjOUmIkGMyD_FKV4x-183">
          <mxGeometry y="110" width="160" height="24" as="geometry" />
        </mxCell>
        <mxCell id="qfWjjOUmIkGMyD_FKV4x-196" value="return this.sensor.acquireSensor(1);" style="shape=note2;boundedLbl=1;whiteSpace=wrap;html=1;size=8;verticalAlign=top;align=center;" vertex="1" parent="1">
          <mxGeometry x="920" y="-2880" width="240" height="40" as="geometry" />
        </mxCell>
        <mxCell id="qfWjjOUmIkGMyD_FKV4x-197" value="return this.sensor.acquireSensor(2);" style="shape=note2;boundedLbl=1;whiteSpace=wrap;html=1;size=8;verticalAlign=top;align=center;" vertex="1" parent="1">
          <mxGeometry x="920" y="-2800" width="240" height="40" as="geometry" />
        </mxCell>
        <mxCell id="qfWjjOUmIkGMyD_FKV4x-199" value="return this.sensor.reset();" style="shape=note2;boundedLbl=1;whiteSpace=wrap;html=1;size=8;verticalAlign=top;align=center;" vertex="1" parent="1">
          <mxGeometry x="920" y="-2720" width="240" height="40" as="geometry" />
        </mxCell>
        <mxCell id="qfWjjOUmIkGMyD_FKV4x-200" value="return this.sensor.calibrate( timeout );" style="shape=note2;boundedLbl=1;whiteSpace=wrap;html=1;size=8;verticalAlign=top;align=center;" vertex="1" parent="1">
          <mxGeometry x="920" y="-2640" width="240" height="40" as="geometry" />
        </mxCell>
        <mxCell id="qfWjjOUmIkGMyD_FKV4x-203" value="" style="edgeStyle=none;orthogonalLoop=1;jettySize=auto;html=1;rounded=0;entryX=0;entryY=0.5;entryDx=0;entryDy=0;entryPerimeter=0;exitX=1;exitY=0.5;exitDx=0;exitDy=0;endArrow=none;endFill=0;" edge="1" parent="1" source="qfWjjOUmIkGMyD_FKV4x-187" target="qfWjjOUmIkGMyD_FKV4x-196">
          <mxGeometry width="100" relative="1" as="geometry">
            <mxPoint x="760" y="-2840" as="sourcePoint" />
            <mxPoint x="860" y="-2840" as="targetPoint" />
            <Array as="points" />
          </mxGeometry>
        </mxCell>
        <mxCell id="qfWjjOUmIkGMyD_FKV4x-205" value="" style="edgeStyle=none;orthogonalLoop=1;jettySize=auto;html=1;rounded=0;entryX=-0.019;entryY=0.465;entryDx=0;entryDy=0;entryPerimeter=0;exitX=1.017;exitY=0.331;exitDx=0;exitDy=0;endArrow=none;endFill=0;exitPerimeter=0;" edge="1" parent="1" source="qfWjjOUmIkGMyD_FKV4x-190" target="qfWjjOUmIkGMyD_FKV4x-197">
          <mxGeometry width="100" relative="1" as="geometry">
            <mxPoint x="810" y="-2740" as="sourcePoint" />
            <mxPoint x="930" y="-2850" as="targetPoint" />
            <Array as="points" />
          </mxGeometry>
        </mxCell>
        <mxCell id="qfWjjOUmIkGMyD_FKV4x-206" value="" style="edgeStyle=none;orthogonalLoop=1;jettySize=auto;html=1;rounded=0;entryX=0;entryY=0.5;entryDx=0;entryDy=0;entryPerimeter=0;exitX=1;exitY=0.5;exitDx=0;exitDy=0;endArrow=none;endFill=0;" edge="1" parent="1" source="qfWjjOUmIkGMyD_FKV4x-189" target="qfWjjOUmIkGMyD_FKV4x-199">
          <mxGeometry width="100" relative="1" as="geometry">
            <mxPoint x="813" y="-2720" as="sourcePoint" />
            <mxPoint x="925" y="-2771" as="targetPoint" />
            <Array as="points" />
          </mxGeometry>
        </mxCell>
        <mxCell id="qfWjjOUmIkGMyD_FKV4x-207" value="" style="edgeStyle=none;orthogonalLoop=1;jettySize=auto;html=1;rounded=0;entryX=0;entryY=0.5;entryDx=0;entryDy=0;entryPerimeter=0;exitX=1;exitY=0.5;exitDx=0;exitDy=0;endArrow=none;endFill=0;" edge="1" parent="1" source="qfWjjOUmIkGMyD_FKV4x-188" target="qfWjjOUmIkGMyD_FKV4x-200">
          <mxGeometry width="100" relative="1" as="geometry">
            <mxPoint x="810" y="-2692" as="sourcePoint" />
            <mxPoint x="930" y="-2690" as="targetPoint" />
            <Array as="points" />
          </mxGeometry>
        </mxCell>
        <mxCell id="qfWjjOUmIkGMyD_FKV4x-209" value="sensor" style="text;html=1;align=center;verticalAlign=middle;whiteSpace=wrap;rounded=0;fontSize=14;" vertex="1" parent="1">
          <mxGeometry x="670" y="-2630" width="50" height="15" as="geometry" />
        </mxCell>
        <mxCell id="qfWjjOUmIkGMyD_FKV4x-210" value="1" style="text;html=1;align=center;verticalAlign=middle;whiteSpace=wrap;rounded=0;fontSize=16;" vertex="1" parent="1">
          <mxGeometry x="720" y="-2627.5" width="20" height="15" as="geometry" />
        </mxCell>
        <mxCell id="qfWjjOUmIkGMyD_FKV4x-211" value="&lt;b style=&quot;font-size: 14px;&quot;&gt;&lt;i style=&quot;font-size: 14px;&quot;&gt;Adapter&lt;/i&gt;&lt;/b&gt;" style="text;html=1;align=center;verticalAlign=middle;whiteSpace=wrap;rounded=0;fontSize=14;" vertex="1" parent="1">
          <mxGeometry x="640" y="-2820" width="60" height="20" as="geometry" />
        </mxCell>
        <mxCell id="qfWjjOUmIkGMyD_FKV4x-212" value="&lt;b style=&quot;font-size: 14px;&quot;&gt;&lt;i style=&quot;font-size: 14px;&quot;&gt;Adaptee&lt;/i&gt;&lt;/b&gt;" style="text;html=1;align=center;verticalAlign=middle;whiteSpace=wrap;rounded=0;fontSize=14;" vertex="1" parent="1">
          <mxGeometry x="600" y="-2620" width="60" height="20" as="geometry" />
        </mxCell>
        <mxCell id="qfWjjOUmIkGMyD_FKV4x-213" value="&lt;b style=&quot;font-size: 14px;&quot;&gt;&lt;i style=&quot;font-size: 14px;&quot;&gt;Target&lt;/i&gt;&lt;/b&gt;" style="text;html=1;align=center;verticalAlign=middle;whiteSpace=wrap;rounded=0;fontSize=14;" vertex="1" parent="1">
          <mxGeometry x="400" y="-3060" width="60" height="20" as="geometry" />
        </mxCell>
        <mxCell id="qfWjjOUmIkGMyD_FKV4x-214" value="&lt;b style=&quot;font-size: 16px;&quot;&gt;&lt;i style=&quot;font-size: 16px;&quot;&gt;Client&lt;/i&gt;&lt;/b&gt;" style="text;html=1;align=center;verticalAlign=middle;whiteSpace=wrap;rounded=0;fontSize=16;" vertex="1" parent="1">
          <mxGeometry x="320" y="-3340" width="60" height="20" as="geometry" />
        </mxCell>
      </root>
    </mxGraphModel>
  </diagram>
</mxfile>
